<svg xmlns="http://www.w3.org/2000/svg" width="24" height="24" viewBox="0 0 48 48">
  <path fill="#1877F2" d="M24 4C12.95 4 4 12.95 4 24c0 9.94 7.45 18.15 17.06 19.8v-14H16v-6h5.06v-4.6c0-5.02 3.03-7.78 7.56-7.78 2.15 0 4.39.38 4.39.38v4.83H30.1c-2.45 0-3.21 1.52-3.21 3.08V24H32l-1 6h-4.1v14C36.55 42.15 44 33.94 44 24c0-11.05-8.95-20-20-20z"/>
  <path fill="#fff" d="M27.9 44V30H32l1-6h-5.1v-3.1c0-1.56.76-3.08 3.21-3.08h2.91v-4.83s-2.24-.38-4.39-.38c-4.53 0-7.56 2.76-7.56 7.78V24H16v6h5.06v14h6.84z"/>
</svg>
