<svg xmlns="http://www.w3.org/2000/svg" width="24" height="24" viewBox="0 0 48 48">
  <path fill="#EA4335" d="M24 9.5c3.54 0 6.71 1.22 9.21 3.6l6.85-6.85C36.02 2.77 30.41.5 24 .5 14.81.5 6.93 5.84 3.05 13.44l7.98 6.2C12.66 14.16 17.84 9.5 24 9.5z"/>
  <path fill="#4285F4" d="M46.04 24.5c0-1.58-.14-3.1-.39-4.57H24v9.14h12.4c-.55 2.84-2.21 5.25-4.64 6.86l7.28 5.67C43.41 37.52 46.04 31.52 46.04 24.5z"/>
  <path fill="#FBBC05" d="M11.03 28.66a14.3 14.3 0 0 1-.77-4.16c0-1.45.27-2.85.77-4.16l-7.98-6.2A23.89 23.89 0 0 0 0 24.5c0 3.87.93 7.53 2.58 10.86l8.45-6.7z"/>
  <path fill="#34A853" d="M24 47.5c6.41 0 12.04-2.11 16.05-5.89l-7.28-5.67C30.49 37.76 27.44 38.5 24 38.5c-6.16 0-11.34-4.66-12.97-10.86l-8.45 6.7C6.93 42.16 14.81 47.5 24 47.5z"/>
  <path fill="none" d="M0 0h48v48H0z"/>
</svg>
